
stateDiagram-v2
    direction LR
    state "C0" as C0
    state "C1" as C1
    state "C2" as C2
    state "C3" as C3
    state "C4" as C4
    state "C5" as C5
    state "O" as O
    [*] --> C0
    C0 --> C1
    C1 --> C2
    C1 --> C3
    C2 --> O
    O --> C5
    C5 --> C4
    C4 --> C3
    C3 --> C1
